<?xml version="1.0" encoding="UTF-8" standalone="no" ?>
<!DOCTYPE svg PUBLIC "-//W3C//DTD SVG 1.1//EN" "http://www.w3.org/Graphics/SVG/1.1/DTD/svg11.dtd">
<svg xmlns="http://www.w3.org/2000/svg" xmlns:xlink="http://www.w3.org/1999/xlink" version="1.1" width="1080" height="1080" viewBox="0 0 1080 1080" xml:space="preserve">
<desc>Created with Fabric.js 5.2.4</desc>
<defs>
</defs>
<g transform="matrix(1 0 0 1 540 540)" id="eb61945d-7ce1-4ccc-ba12-3a2cb0662e3e"  >
<rect style="stroke: none; stroke-width: 1; stroke-dasharray: none; stroke-linecap: butt; stroke-dashoffset: 0; stroke-linejoin: miter; stroke-miterlimit: 4; fill: rgb(255,255,255); fill-rule: nonzero; opacity: 1; visibility: hidden;" vector-effect="non-scaling-stroke"  x="-540" y="-540" rx="0" ry="0" width="1080" height="1080" />
</g>
<g transform="matrix(1 0 0 1 540 540)" id="f8c37b72-4b6f-4edc-954c-af520c9caea3"  >
</g>
<g transform="matrix(1 0 0 1 544.62 543.17)"  >
<path style="stroke: rgb(48,181,126); stroke-width: 1; stroke-dasharray: none; stroke-linecap: butt; stroke-dashoffset: 0; stroke-linejoin: miter; stroke-miterlimit: 4; fill: rgb(48,181,126); fill-rule: nonzero; opacity: 1;" vector-effect="non-scaling-stroke"  transform=" translate(-282.53, -326.37)" d="M 306.212 342.285 C 306.2264639231164 344.4732261752527 305.2884275990545 346.5595357582637 303.642 348.00100000000003 C 301.298 349.98800000000006 297.366 350.20700000000005 294.479 350.10900000000004 C 289.46 349.95500000000004 265.24899999999997 346.03900000000004 260.579 345.36600000000004 C 260.1317798257495 345.3389355564285 259.705268428543 345.16812054784333 259.363 344.879 C 258.601 344.10900000000004 258.863 343.00600000000003 259.071 342.098 C 259.32300000000004 341.012 259.56600000000003 339.958 259.809 338.91200000000003 C 259.84200000000004 338.75800000000004 259.882 338.60400000000004 259.90900000000005 338.449 L 260.915 338.579 L 261.08500000000004 338.604 C 261.04400000000004 338.758 261.01200000000006 338.912 260.97200000000004 339.066 Q 260.74100000000004 340.00199999999995 260.509 340.93899999999996 C 260.25540102409724 341.65255581165195 260.12028218540433 342.4028031634946 260.10900000000004 343.15999999999997 C 260.1185399228433 343.40907763396706 260.2196675141389 343.6458728741488 260.39300000000003 343.825 C 260.5586321141027 343.96515108767494 260.7560372806798 344.0626520742973 260.968 344.109 C 261.2053265971314 344.17101986926144 261.4465298605093 344.21712243206775 261.69 344.24699999999996 C 263.377 344.45799999999997 288.08299999999997 348.22799999999995 290.451 348.46299999999997 C 293.19100000000003 348.739 296.68600000000004 348.95799999999997 298.745 346.72799999999995 C 299.7822007653199 345.51044638683 300.34127136473546 343.9572750457962 300.318 342.35799999999995 L 300.318 342.21999999999997 C 300.318 342.02 300.31 341.806 300.30199999999996 341.59499999999997 C 300.2953132989707 341.53859408593536 300.2926399107642 341.4817845865476 300.294 341.42499999999995 C 300.27 341.15799999999996 300.23699999999997 340.88999999999993 300.18899999999996 340.62499999999994 L 294.748 308.45099999999996 C 294.723 308.33 294.699 308.21599999999995 294.675 308.09499999999997 C 294.634 307.916 294.586 307.73799999999994 294.53700000000003 307.55999999999995 C 294.521 307.49499999999995 294.49600000000004 307.42199999999997 294.48 307.35999999999996 C 294.40700000000004 307.133 294.326 306.90599999999995 294.237 306.68699999999995 C 294.22900000000004 306.67099999999994 294.22900000000004 306.662 294.221 306.65399999999994 C 294.115 306.40299999999996 293.994 306.16799999999995 293.872 305.9409999999999 C 293.84000000000003 305.8759999999999 293.807 305.8189999999999 293.767 305.7539999999999 C 293.718 305.6649999999999 293.661 305.5759999999999 293.604 305.4869999999999 C 293.54699999999997 305.3979999999999 293.49899999999997 305.3329999999999 293.45 305.2519999999999 C 293.40999999999997 305.2029999999999 293.36899999999997 305.1459999999999 293.329 305.0979999999999 C 293.26341601147146 305.00246440749896 293.1929907650803 304.910344179992 293.118 304.8219999999999 C 293.086 304.7809999999999 293.053 304.7489999999999 293.018 304.7079999999999 C 292.91799999999995 304.58699999999993 292.80699999999996 304.4729999999999 292.693 304.3599999999999 L 292.661 304.3269999999999 C 292.555 304.22199999999987 292.45 304.1269999999999 292.337 304.0269999999999 C 292.312 304.01099999999985 292.288 303.98699999999985 292.264 303.9709999999999 C 292.14730890657137 303.87259857953075 292.0254704007389 303.7804686408739 291.899 303.6949999999999 C 291.87863667240464 303.67700593675096 291.8569044510157 303.66062318524234 291.834 303.6459999999999 Q 291.634 303.5119999999999 291.445 303.4029999999999 C 291.437 303.3949999999999 291.42 303.3949999999999 291.412 303.3869999999999 C 290.4259513168177 302.93418849408727 289.3387640857091 302.74667110229177 288.258 302.8429999999999 C 288.058 302.8429999999999 287.885 302.8429999999999 287.69 302.8349999999999 L 287.658 302.8349999999999 L 287.62600000000003 302.61599999999993 L 287.65000000000003 302.61599999999993 L 294.87500000000006 302.7869999999999 L 294.92300000000006 302.7869999999999 L 295.31300000000005 302.8109999999999 C 295.32809719425984 302.81757834190324 295.3445853540019 302.8203263685269 295.36100000000005 302.8189999999999 C 295.39300000000003 302.8269999999999 295.41800000000006 302.8269999999999 295.45000000000005 302.8349999999999 L 295.65000000000003 302.8599999999999 C 295.7130949303835 302.86948427376933 295.7755463242759 302.8828428606982 295.83700000000005 302.8999999999999 C 295.86100000000005 302.9079999999999 295.89300000000003 302.9079999999999 295.91800000000006 302.9169999999999 C 295.9430000000001 302.92599999999993 295.95000000000005 302.9249999999999 295.96600000000007 302.9249999999999 C 296.06736812434724 302.94665063113206 296.16751017905347 302.97368898590275 296.2660000000001 303.0059999999999 C 296.2943171013247 303.0129726903161 296.3215631883147 303.0237365765344 296.3470000000001 303.0379999999999 L 296.4280000000001 303.0619999999999 C 296.4690000000001 303.0789999999999 296.5090000000001 303.0869999999999 296.5500000000001 303.1029999999999 C 296.6390000000001 303.1349999999999 296.7290000000001 303.1759999999999 296.8180000000001 303.2079999999999 C 296.8340000000001 303.2159999999999 296.8420000000001 303.2249999999999 296.8500000000001 303.2249999999999 C 296.85800000000006 303.2249999999999 296.8740000000001 303.24099999999993 296.8910000000001 303.2489999999999 C 296.9550000000001 303.2729999999999 297.0200000000001 303.3059999999999 297.0850000000001 303.3379999999999 C 297.1500000000001 303.3699999999999 297.2310000000001 303.4109999999999 297.3040000000001 303.4519999999999 C 297.31200000000007 303.45999999999987 297.3200000000001 303.45999999999987 297.3280000000001 303.4679999999999 C 297.4280000000001 303.5249999999999 297.5150000000001 303.5679999999999 297.59600000000006 303.6299999999999 C 297.6360000000001 303.6539999999999 297.6770000000001 303.6869999999999 297.7180000000001 303.7109999999999 L 297.7900000000001 303.7599999999999 C 297.8078010883188 303.77496495208146 297.82687333963105 303.78834898809004 297.8470000000001 303.7999999999999 C 297.9280000000001 303.8569999999999 298.00900000000007 303.9219999999999 298.0910000000001 303.9869999999999 C 298.11140096352773 304.00125833106785 298.1304778501465 304.01732307769413 298.14800000000014 304.0349999999999 C 298.17200000000014 304.0599999999999 298.19600000000014 304.0759999999999 298.22000000000014 304.0999999999999 L 298.34200000000016 304.19999999999993 C 298.41500000000013 304.26399999999995 298.48000000000013 304.32899999999995 298.55300000000017 304.39399999999995 C 298.55951260006856 304.40838108966886 298.5708260566134 304.42004809173073 298.58500000000015 304.42699999999996 C 298.6850000000002 304.527 298.7640000000001 304.61299999999994 298.84500000000014 304.71 C 298.8656766725368 304.72985033379507 298.8844270433861 304.7516141571023 298.9010000000001 304.775 C 298.9323150438176 304.81472408243366 298.96569432909166 304.8527764676461 299.00100000000015 304.88899999999995 C 299.04128429779706 304.9327928765515 299.0790134138494 304.9788691421729 299.11400000000015 305.02699999999993 C 299.14600000000013 305.06699999999995 299.17900000000014 305.11599999999993 299.21400000000017 305.1649999999999 C 299.2490000000002 305.2139999999999 299.29600000000016 305.26499999999993 299.3360000000002 305.3189999999999 C 299.3520000000002 305.3509999999999 299.3770000000002 305.3749999999999 299.3930000000002 305.4079999999999 L 299.4930000000002 305.5539999999999 L 299.6640000000002 305.8209999999999 C 299.67763137005517 305.8535516308583 299.69655344571936 305.883624215396 299.7200000000002 305.9099999999999 C 299.7360000000002 305.9429999999999 299.7450000000002 305.9749999999999 299.7610000000002 306.00999999999993 C 299.8913268888401 306.2404026669564 300.0075408110195 306.4785076282033 300.1090000000002 306.72299999999996 C 300.1180000000002 306.73099999999994 300.1180000000002 306.73999999999995 300.1260000000002 306.74799999999993 Q 300.2600000000002 307.0879999999999 300.3690000000002 307.4289999999999 C 300.3930000000002 307.5019999999999 300.4090000000002 307.5669999999999 300.4260000000002 307.6289999999999 C 300.4820000000002 307.8079999999999 300.52600000000024 307.98599999999993 300.5630000000002 308.1729999999999 C 300.5710000000002 308.2129999999999 300.5880000000002 308.2539999999999 300.59600000000023 308.3019999999999 C 300.61320713300717 308.3742390917855 300.6265593310317 308.44734237596987 300.63600000000025 308.5209999999999 L 306.0770000000002 340.6949999999999 C 306.17313446804906 341.21941102361717 306.2183447696408 341.7518879090317 306.212 342.285 Z" stroke-linecap="round" />
</g>
<g transform="matrix(1 0 0 1 533.48 535.89)"  >
<path style="stroke: none; stroke-width: 1; stroke-dasharray: none; stroke-linecap: butt; stroke-dashoffset: 0; stroke-linejoin: miter; stroke-miterlimit: 4; fill: rgb(48,181,126); fill-rule: nonzero; opacity: 1;" vector-effect="non-scaling-stroke"  transform=" translate(-271.39, -319.08)" d="M 292.987 333.025 L 287.687 302.825 L 287.65500000000003 302.825 L 287.62300000000005 302.606 L 287.64700000000005 302.606 L 287.59800000000007 302.339 L 287.5660000000001 302.12 L 287.5420000000001 301.998 C 286.9500000000001 298.625 284.4930000000001 296.233 281.66300000000007 296.26599999999996 L 260.90600000000006 299.88199999999995 C 257.9004716763601 300.3916545777166 255.53916324487045 302.73455280787596 255.00600000000006 305.73599999999993 L 249.73600000000005 330.85599999999994 C 248.97300000000004 334.52899999999994 251.90000000000003 337.6019999999999 255.63000000000005 337.90199999999993 L 259.749 338.42099999999994 L 259.911 338.44499999999994 L 260.917 338.57499999999993 L 261.087 338.5999999999999 L 287.139 341.8999999999999 C 291.933 341.9 293.782 337.557 292.987 333.025 Z M 269.473 307.962 C 269.303 307.986 269.13300000000004 308.002 268.973 308.01099999999997 C 267.12347350531917 308.0975518837324 265.4862255144777 306.82474961046876 265.11400000000003 305.01099999999997 C 265.0407776872434 304.59149831404943 265.3132321111708 304.1894511202994 265.73 304.102 C 265.75087678671804 304.09485174253894 265.7730129407104 304.0921272928168 265.795 304.094 C 266.02587889260593 304.0875795055703 266.22777272073887 304.2485032472411 266.273 304.47499999999997 C 266.6097233736819 305.95122089296547 268.0399976608779 306.9081007151662 269.533 306.65599999999995 C 271.1032136223144 306.35415484794913 272.3311548479492 305.1262136223143 272.63300000000004 303.5559999999999 C 272.6861968484974 303.2386438200881 272.9267870963974 302.98539092756175 273.24100000000004 302.91599999999994 C 273.39698025585204 302.88218383851455 273.5593923523541 302.93090746746515 273.67100000000005 303.04499999999996 C 273.7966145918845 303.1863230155943 273.84516479282007 303.3801503562523 273.80100000000004 303.56399999999996 C 273.38256045503766 305.77143625851045 271.6734391538069 307.508200464336 269.473 307.962 Z" stroke-linecap="round" />
</g>
<g transform="matrix(1 0 0 1 549.75 519.52)"  >
<path style="stroke: none; stroke-width: 1; stroke-dasharray: none; stroke-linecap: butt; stroke-dashoffset: 0; stroke-linejoin: miter; stroke-miterlimit: 4; fill: rgb(0,0,0); fill-rule: nonzero; opacity: 1;" vector-effect="non-scaling-stroke"  transform=" translate(-287.66, -302.72)" d="M 287.692 302.829 L 287.66 302.829 L 287.62800000000004 302.61 L 287.653 302.61 Z" stroke-linecap="round" />
</g>
<g transform="matrix(0 0 0 0 0 0)"  >
<g style=""   >
</g>
</g>
<g transform="matrix(0 0 0 0 0 0)"  >
<g style=""   >
</g>
</g>
<g transform="matrix(0 0 0 0 0 0)"  >
<g style=""   >
</g>
</g>
<g transform="matrix(0 0 0 0 0 0)"  >
<g style=""   >
</g>
</g>
<g transform="matrix(0 0 0 0 0 0)"  >
<g style=""   >
</g>
</g>
</svg>