<svg width="57" height="54" viewBox="0 0 57 54" fill="none" xmlns="http://www.w3.org/2000/svg">
<path d="M56.5977 46.015C56.6049 47.0964 56.379 48.1666 55.9356 49.153C55.4921 50.1393 54.8414 51.0186 54.0277 51.731C51.6837 53.718 47.7517 53.937 44.8647 53.839C39.8457 53.685 15.6347 49.7689 10.9647 49.0959C10.5175 49.0689 10.091 48.8981 9.74873 48.6089C8.98673 47.8389 9.24873 46.7359 9.45673 45.8279C9.70873 44.7419 9.95171 43.6879 10.1947 42.6419C10.2277 42.4879 10.2677 42.334 10.2947 42.179L11.3007 42.309L11.4707 42.334C11.4297 42.488 11.3977 42.642 11.3577 42.796C11.2037 43.42 11.0494 44.0443 10.8947 44.6689C10.6411 45.3825 10.506 46.1328 10.4947 46.89C10.5043 47.139 10.6054 47.3758 10.7787 47.555C10.9444 47.6951 11.1417 47.7926 11.3537 47.839C11.591 47.901 11.8323 47.9471 12.0757 47.977C13.7627 48.188 38.4687 51.958 40.8367 52.193C43.5767 52.469 47.0717 52.6879 49.1307 50.4579C50.1679 49.2404 50.727 47.6872 50.7037 46.088V45.95C50.7037 45.75 50.6957 45.536 50.6877 45.325C50.681 45.2685 50.6784 45.2117 50.6797 45.1549C50.6557 44.8879 50.6227 44.6199 50.5747 44.3549L45.1337 12.1809C45.1087 12.0599 45.0847 11.946 45.0607 11.825C45.0197 11.646 44.9717 11.4679 44.9227 11.2899C44.9067 11.2249 44.8817 11.1519 44.8657 11.0899C44.7927 10.8629 44.7117 10.636 44.6227 10.417C44.6147 10.401 44.6147 10.3919 44.6067 10.3839C44.5007 10.1329 44.3797 9.89796 44.2577 9.67096C44.2257 9.60596 44.1927 9.54895 44.1527 9.48395C44.1037 9.39495 44.0467 9.30595 43.9897 9.21695C43.9327 9.12795 43.8847 9.06296 43.8357 8.98196C43.7957 8.93296 43.7547 8.87594 43.7147 8.82794C43.6491 8.73241 43.5787 8.64029 43.5037 8.55194C43.4717 8.51094 43.4387 8.47896 43.4037 8.43796C43.3037 8.31696 43.1927 8.20294 43.0787 8.08994L43.0467 8.05695C42.9407 7.95195 42.8357 7.85696 42.7227 7.75696C42.6977 7.74096 42.6737 7.71696 42.6497 7.70096C42.533 7.60256 42.4112 7.51043 42.2847 7.42496C42.2643 7.40696 42.2426 7.39057 42.2197 7.37595C42.0864 7.28661 41.9567 7.20563 41.8307 7.13297C41.8227 7.12497 41.8057 7.12494 41.7977 7.11694C40.8117 6.66413 39.7245 6.47661 38.6437 6.57294C38.4437 6.57294 38.2707 6.57294 38.0757 6.56494H38.0437L38.0117 6.34595H38.0357L45.2607 6.51694H45.3087L45.6987 6.54095C45.7138 6.54753 45.7303 6.55028 45.7467 6.54895C45.7787 6.55695 45.8037 6.55694 45.8357 6.56494L46.0357 6.58994C46.0988 6.59942 46.1613 6.61279 46.2227 6.62994C46.2467 6.63794 46.2787 6.63794 46.3037 6.64694C46.3287 6.65594 46.3357 6.65494 46.3517 6.65494C46.4531 6.67659 46.5532 6.70365 46.6517 6.73596C46.68 6.74293 46.7073 6.75368 46.7327 6.76794L46.8137 6.79196C46.8547 6.80896 46.8947 6.81695 46.9357 6.83295C47.0247 6.86495 47.1147 6.90596 47.2037 6.93796C47.2197 6.94596 47.2277 6.95496 47.2357 6.95496C47.2437 6.95496 47.2597 6.97094 47.2767 6.97894C47.3407 7.00294 47.4057 7.03596 47.4707 7.06796C47.5357 7.09996 47.6167 7.14095 47.6897 7.18195C47.6977 7.18995 47.7057 7.18994 47.7137 7.19794C47.8137 7.25494 47.9007 7.29795 47.9817 7.35995C48.0217 7.38395 48.0627 7.41695 48.1037 7.44095L48.1757 7.48996C48.1935 7.50492 48.2126 7.51829 48.2327 7.52994C48.3137 7.58694 48.3947 7.65195 48.4767 7.71695C48.4971 7.73121 48.5162 7.74728 48.5337 7.76495C48.5577 7.78995 48.5817 7.80596 48.6057 7.82996L48.7277 7.92996C48.8007 7.99396 48.8657 8.05896 48.9387 8.12396C48.9452 8.13834 48.9565 8.15 48.9707 8.15695C49.0707 8.25695 49.1497 8.34294 49.2307 8.43994C49.2514 8.45979 49.2701 8.48156 49.2867 8.50494C49.318 8.54467 49.3514 8.58273 49.3867 8.61896C49.427 8.66275 49.4647 8.70883 49.4997 8.75696C49.5317 8.79696 49.5647 8.84596 49.5997 8.89496C49.6347 8.94396 49.6817 8.99495 49.7217 9.04895C49.7377 9.08095 49.7627 9.10494 49.7787 9.13794L49.8787 9.28394L50.0497 9.55096C50.0634 9.58352 50.0823 9.61358 50.1057 9.63995C50.1217 9.67295 50.1307 9.70496 50.1467 9.73996C50.277 9.97036 50.3933 10.2084 50.4947 10.4529C50.5037 10.4609 50.5037 10.4699 50.5117 10.4779C50.6011 10.7046 50.682 10.9316 50.7547 11.1589C50.7787 11.2319 50.7947 11.2969 50.8117 11.3589C50.8677 11.5379 50.9117 11.716 50.9487 11.903C50.9567 11.943 50.9737 11.984 50.9817 12.032C50.9989 12.1042 51.0123 12.1773 51.0217 12.2509L56.4627 44.425C56.5588 44.9494 56.6041 45.4818 56.5977 46.015Z" fill="#30B57E"/>
<path d="M43.3727 36.7549L38.0727 6.55496H38.0407L38.0087 6.33594H38.0327L37.9837 6.06894L37.9517 5.84995L37.9277 5.72794C37.3357 2.35494 34.8787 -0.0370573 32.0487 -0.00405727L11.2917 3.61194C9.82489 3.86068 8.47074 4.55662 7.41461 5.60452C6.35847 6.65243 5.65194 8.00109 5.39173 9.46594L0.121728 34.5859C-0.641272 38.2589 2.28574 41.332 6.01574 41.632L10.1347 42.1509L10.2967 42.175L11.3027 42.305L11.4727 42.33L37.5247 45.6299C42.3187 45.6299 44.1677 41.2869 43.3727 36.7549ZM19.8587 11.692C19.6887 11.716 19.5187 11.7319 19.3587 11.7409C18.4635 11.7828 17.5828 11.5036 16.8752 10.9536C16.1677 10.4035 15.6799 9.61883 15.4997 8.74094C15.4645 8.53912 15.5091 8.33152 15.624 8.16193C15.7389 7.99233 15.9152 7.87401 16.1157 7.83194C16.1366 7.82479 16.1588 7.82207 16.1807 7.82395C16.2926 7.82084 16.4019 7.85737 16.4893 7.92709C16.5768 7.99682 16.6368 8.09526 16.6587 8.20496C16.8209 8.916 17.249 9.53805 17.8551 9.94357C18.4613 10.3491 19.1996 10.5074 19.9187 10.386C20.6862 10.2384 21.3918 9.86419 21.9444 9.31159C22.497 8.75898 22.8712 8.0534 23.0187 7.28595C23.0447 7.13082 23.1165 6.987 23.2248 6.87296C23.3332 6.75892 23.4731 6.67986 23.6267 6.64594C23.7035 6.6293 23.7832 6.63244 23.8584 6.655C23.9336 6.67756 24.0018 6.71884 24.0567 6.77496C24.1186 6.84459 24.1628 6.92813 24.1854 7.0185C24.208 7.10886 24.2085 7.20337 24.1867 7.29395C23.9821 8.3733 23.4615 9.36756 22.691 10.1506C21.9204 10.9336 20.9347 11.4701 19.8587 11.692Z" fill="#30B57E"/>
<path d="M38.0777 6.55899H38.0457L38.0137 6.33997H38.0387L38.0777 6.55899Z" fill="#30B57E"/>
</svg>
