<svg width="160" height="55" viewBox="0 0 160 55" fill="none" xmlns="http://www.w3.org/2000/svg">
<g clip-path="url(#clip0_53_46)">
<path d="M56.596 46.015C56.6032 47.0964 56.3773 48.1666 55.9338 49.153C55.4904 50.1393 54.8397 51.0186 54.026 51.731C51.682 53.718 47.75 53.937 44.863 53.839C39.844 53.685 15.633 49.7689 10.963 49.0959C10.5158 49.0689 10.0893 48.8981 9.74702 48.6089C8.98502 47.8389 9.24702 46.7359 9.45502 45.8279C9.70702 44.7419 9.95 43.6879 10.193 42.6419C10.226 42.4879 10.266 42.334 10.293 42.179L11.299 42.309L11.469 42.334C11.428 42.488 11.396 42.642 11.356 42.796C11.202 43.42 11.0477 44.0443 10.893 44.6689C10.6394 45.3825 10.5043 46.1328 10.493 46.89C10.5026 47.139 10.6037 47.3758 10.777 47.555C10.9426 47.6951 11.14 47.7926 11.352 47.839C11.5893 47.901 11.8305 47.9471 12.074 47.977C13.761 48.188 38.467 51.958 40.835 52.193C43.575 52.469 47.07 52.6879 49.129 50.4579C50.1662 49.2404 50.7253 47.6872 50.702 46.088V45.95C50.702 45.75 50.694 45.5359 50.686 45.325C50.6793 45.2685 50.6767 45.2117 50.678 45.1549C50.654 44.8879 50.621 44.6199 50.573 44.3549L45.132 12.1809C45.107 12.0599 45.083 11.946 45.059 11.825C45.018 11.646 44.97 11.4679 44.921 11.2899C44.905 11.2249 44.88 11.1519 44.864 11.0899C44.791 10.8629 44.71 10.636 44.621 10.417C44.613 10.401 44.613 10.3919 44.605 10.3839C44.499 10.1329 44.378 9.89796 44.256 9.67096C44.224 9.60596 44.191 9.54895 44.151 9.48395C44.102 9.39495 44.045 9.30595 43.988 9.21695C43.931 9.12795 43.883 9.06296 43.834 8.98196C43.794 8.93296 43.753 8.87594 43.713 8.82794C43.6474 8.73241 43.577 8.64029 43.502 8.55194C43.47 8.51094 43.437 8.47896 43.402 8.43796C43.302 8.31696 43.191 8.20294 43.077 8.08994L43.045 8.05695C42.939 7.95195 42.834 7.85696 42.721 7.75696C42.696 7.74096 42.672 7.71696 42.648 7.70096C42.5313 7.60256 42.4095 7.51043 42.283 7.42496C42.2626 7.40696 42.2409 7.39057 42.218 7.37595C42.0847 7.28661 41.955 7.20563 41.829 7.13297C41.821 7.12497 41.804 7.12494 41.796 7.11694C40.8099 6.66413 39.7228 6.47661 38.642 6.57294C38.442 6.57294 38.269 6.57294 38.074 6.56494H38.042L38.01 6.34595H38.034L45.259 6.51694H45.307L45.697 6.54095C45.7121 6.54753 45.7286 6.55028 45.745 6.54895C45.777 6.55695 45.802 6.55694 45.834 6.56494L46.034 6.58994C46.0971 6.59942 46.1596 6.61279 46.221 6.62994C46.245 6.63794 46.277 6.63794 46.302 6.64694C46.327 6.65594 46.334 6.65494 46.35 6.65494C46.4514 6.67659 46.5515 6.70365 46.65 6.73596C46.6783 6.74293 46.7056 6.75368 46.731 6.76794L46.812 6.79196C46.853 6.80896 46.893 6.81695 46.934 6.83295C47.023 6.86495 47.113 6.90596 47.202 6.93796C47.218 6.94596 47.226 6.95496 47.234 6.95496C47.242 6.95496 47.258 6.97094 47.275 6.97894C47.339 7.00294 47.404 7.03596 47.469 7.06796C47.534 7.09996 47.615 7.14095 47.688 7.18195C47.696 7.18995 47.704 7.18994 47.712 7.19794C47.812 7.25494 47.899 7.29795 47.98 7.35995C48.02 7.38395 48.061 7.41695 48.102 7.44095L48.174 7.48996C48.1918 7.50492 48.2109 7.51829 48.231 7.52994C48.312 7.58694 48.393 7.65195 48.475 7.71695C48.4954 7.73121 48.5145 7.74728 48.532 7.76495C48.556 7.78995 48.58 7.80596 48.604 7.82996L48.726 7.92996C48.799 7.99396 48.864 8.05896 48.937 8.12396C48.9435 8.13834 48.9548 8.15 48.969 8.15695C49.069 8.25695 49.148 8.34294 49.229 8.43994C49.2497 8.45979 49.2684 8.48156 49.285 8.50494C49.3163 8.54467 49.3497 8.58273 49.385 8.61896C49.4253 8.66275 49.463 8.70883 49.498 8.75696C49.53 8.79696 49.563 8.84596 49.598 8.89496C49.633 8.94396 49.68 8.99495 49.72 9.04895C49.736 9.08095 49.761 9.10494 49.777 9.13794L49.877 9.28394L50.048 9.55096C50.0616 9.58352 50.0806 9.61358 50.104 9.63995C50.12 9.67295 50.129 9.70496 50.145 9.73996C50.2753 9.97036 50.3916 10.2084 50.493 10.4529C50.502 10.4609 50.502 10.4699 50.51 10.4779C50.5993 10.7046 50.6803 10.9316 50.753 11.1589C50.777 11.2319 50.793 11.2969 50.81 11.3589C50.866 11.5379 50.91 11.716 50.947 11.903C50.955 11.943 50.972 11.984 50.98 12.032C50.9972 12.1042 51.0106 12.1773 51.02 12.2509L56.461 44.425C56.5571 44.9494 56.6024 45.4818 56.596 46.015Z" fill="white"/>
<path d="M43.371 36.7549L38.071 6.55496H38.039L38.007 6.33594H38.031L37.982 6.06894L37.95 5.84995L37.926 5.72794C37.334 2.35494 34.877 -0.0370573 32.047 -0.00405727L11.29 3.61194C9.82318 3.86068 8.46903 4.55662 7.4129 5.60452C6.35676 6.65243 5.65023 8.00109 5.39002 9.46594L0.120019 34.5859C-0.642981 38.2589 2.28403 41.332 6.01403 41.632L10.133 42.1509L10.295 42.175L11.301 42.305L11.471 42.33L37.523 45.6299C42.317 45.6299 44.166 41.2869 43.371 36.7549ZM19.857 11.692C19.687 11.716 19.517 11.7319 19.357 11.7409C18.4618 11.7828 17.5811 11.5036 16.8735 10.9536C16.166 10.4035 15.6782 9.61883 15.498 8.74094C15.4628 8.53912 15.5073 8.33152 15.6223 8.16193C15.7372 7.99233 15.9135 7.87401 16.114 7.83194C16.1349 7.82479 16.1571 7.82207 16.179 7.82395C16.2909 7.82084 16.4002 7.85737 16.4876 7.92709C16.5751 7.99682 16.6351 8.09526 16.657 8.20496C16.8192 8.916 17.2473 9.53805 17.8534 9.94357C18.4596 10.3491 19.1979 10.5074 19.917 10.386C20.6845 10.2384 21.39 9.86419 21.9426 9.31159C22.4953 8.75898 22.8695 8.0534 23.017 7.28595C23.043 7.13082 23.1148 6.987 23.2231 6.87296C23.3315 6.75892 23.4714 6.67986 23.625 6.64594C23.7018 6.6293 23.7814 6.63244 23.8567 6.655C23.9319 6.67756 24.0001 6.71884 24.055 6.77496C24.1169 6.84459 24.161 6.92813 24.1837 7.0185C24.2063 7.10886 24.2068 7.20337 24.185 7.29395C23.9804 8.3733 23.4598 9.36756 22.6893 10.1506C21.9187 10.9336 20.9329 11.4701 19.857 11.692Z" fill="white"/>
<path d="M38.076 6.55899H38.044L38.012 6.33997H38.037L38.076 6.55899Z" fill="white"/>
<path d="M94.2 40.4409C91.8206 41.7083 89.1708 42.3837 86.475 42.4099C80.913 42.4099 76.583 38.9149 76.583 31.4359V19.9699H71.562V14.753H76.584V8.60095L82.144 7.37195V14.753H93.267V19.9699H82.143V31.14C82.143 35.077 83.965 37.24 87.46 37.24C89.437 37.1087 91.3801 36.6606 93.215 35.913L94.2 40.4409Z" fill="white"/>
<path d="M124.608 14.753V41.8199H119.046V37.291C118.054 38.8935 116.66 40.2088 115.002 41.1067C113.345 42.0046 111.482 42.4539 109.597 42.4099C102.365 42.4099 97.097 36.5539 97.097 28.2859C97.097 20.0179 102.461 14.163 109.546 14.163C111.446 14.1306 113.322 14.5947 114.989 15.5095C116.655 16.4243 118.053 17.758 119.046 19.3789V14.753H124.608ZM119.095 28.2859C119.095 23.1199 115.504 19.4779 110.78 19.4779C106.056 19.4779 102.708 23.1199 102.708 28.2859C102.708 33.5029 106.108 37.0949 110.78 37.0949C115.504 37.0949 119.095 33.5029 119.095 28.2859Z" fill="white"/>
<path d="M137.493 7.76096C137.458 8.69684 137.062 9.5828 136.388 10.2326C135.713 10.8824 134.813 11.2455 133.876 11.2455C132.94 11.2455 132.04 10.8824 131.365 10.2326C130.691 9.5828 130.295 8.69684 130.26 7.76096C130.319 6.84206 130.726 5.98014 131.398 5.35031C132.069 4.72049 132.956 4.37 133.876 4.37C134.797 4.37 135.684 4.72049 136.355 5.35031C137.027 5.98014 137.434 6.84206 137.493 7.76096ZM131.093 14.753H136.655V54.1219H131.093V14.753Z" fill="white"/>
<path d="M159.292 14.31V19.97C158.737 19.9046 158.178 19.8713 157.619 19.87C152.55 19.87 148.663 22.724 148.663 29.418V41.818H143.101V14.753H148.663V20.117C149.354 18.3079 150.593 16.7607 152.209 15.6928C153.824 14.6248 155.733 14.0898 157.668 14.163C158.213 14.1489 158.758 14.1982 159.292 14.31Z" fill="white"/>
</g>
<defs>
<clipPath id="clip0_53_46">
<rect width="159.292" height="54.122" fill="white"/>
</clipPath>
</defs>
</svg>
