<?xml version="1.0" standalone="no"?>
<!DOCTYPE svg PUBLIC "-//W3C//DTD SVG 1.1//EN" "http://www.w3.org/Graphics/SVG/1.1/DTD/svg11.dtd">
<svg xmlns="http://www.w3.org/2000/svg" width="159.29200744628906" height="54.12200164794922" viewBox="0 0 159.292 54.122">
  <g id="Group_12" data-name="Group 12" transform="translate(-249.616 -296.27)">
    <g id="Group_2" data-name="Group 2">
      <g id="Group_1" data-name="Group 1">
        <path id="Path_1" data-name="Path 1" d="M306.212,342.285a7.531,7.531,0,0,1-2.57,5.716c-2.344,1.987-6.276,2.206-9.163,2.108-5.019-.154-29.23-4.07-33.9-4.743a2.079,2.079,0,0,1-1.216-.487c-.762-.77-.5-1.873-.292-2.781.252-1.086.495-2.14.738-3.186.033-.154.073-.308.1-.463l1.006.13.17.025c-.041.154-.073.308-.113.462q-.231.936-.463,1.873a6.941,6.941,0,0,0-.4,2.221,1.012,1.012,0,0,0,.284.665,1.33,1.33,0,0,0,.575.284,5.51,5.51,0,0,0,.722.138c1.687.211,26.393,3.981,28.761,4.216,2.74.276,6.235.495,8.294-1.735a6.591,6.591,0,0,0,1.573-4.37v-.138c0-.2-.008-.414-.016-.625a1.2,1.2,0,0,1-.008-.17c-.024-.267-.057-.535-.105-.8l-5.441-32.174c-.025-.121-.049-.235-.073-.356-.041-.179-.089-.357-.138-.535-.016-.065-.041-.138-.057-.2-.073-.227-.154-.454-.243-.673-.008-.016-.008-.025-.016-.033-.106-.251-.227-.486-.349-.713-.032-.065-.065-.122-.105-.187-.049-.089-.106-.178-.163-.267s-.105-.154-.154-.235c-.04-.049-.081-.106-.121-.154a3.4,3.4,0,0,0-.211-.276c-.032-.041-.065-.073-.1-.114-.1-.121-.211-.235-.325-.348l-.032-.033c-.106-.105-.211-.2-.324-.3-.025-.016-.049-.04-.073-.056a4.308,4.308,0,0,0-.365-.276.524.524,0,0,0-.065-.049q-.2-.134-.389-.243c-.008-.008-.025-.008-.033-.016a6.232,6.232,0,0,0-3.154-.544c-.2,0-.373,0-.568-.008h-.032l-.032-.219h.024l7.225.171h.048l.39.024a.1.1,0,0,0,.048.008c.032.008.057.008.089.016l.2.025a1.555,1.555,0,0,1,.187.04c.024.008.056.008.081.017s.032.008.048.008a2.917,2.917,0,0,1,.3.081.324.324,0,0,1,.081.032l.081.024c.041.017.081.025.122.041.089.032.179.073.268.105.016.008.024.017.032.017s.024.016.041.024c.064.024.129.057.194.089s.146.073.219.114c.008.008.016.008.024.016.1.057.187.1.268.162.04.024.081.057.122.081l.072.049a.4.4,0,0,0,.057.04c.081.057.162.122.244.187a.415.415,0,0,1,.057.048c.024.025.048.041.072.065l.122.1c.073.064.138.129.211.194a.068.068,0,0,0,.032.033c.1.1.179.186.26.283a.454.454,0,0,1,.056.065,1.445,1.445,0,0,0,.1.114,1.55,1.55,0,0,1,.113.138c.032.04.065.089.1.138s.082.1.122.154c.016.032.041.056.057.089l.1.146.171.267a.32.32,0,0,0,.056.089c.016.033.025.065.041.1a6.538,6.538,0,0,1,.348.713c.009.008.009.017.017.025q.134.34.243.681c.024.073.04.138.057.2.056.179.1.357.137.544.008.04.025.081.033.129a2.094,2.094,0,0,1,.04.219l5.441,32.174A8.272,8.272,0,0,1,306.212,342.285Z"/>
        <path id="Path_2" data-name="Path 2" d="M292.987,333.025l-5.3-30.2h-.032l-.032-.219h.024l-.049-.267-.032-.219-.024-.122c-.592-3.373-3.049-5.765-5.879-5.732l-20.757,3.616a7.218,7.218,0,0,0-5.9,5.854l-5.27,25.12c-.763,3.673,2.164,6.746,5.894,7.046l4.119.519.162.024,1.006.13.17.025,26.052,3.3C291.933,341.9,293.782,337.557,292.987,333.025Zm-23.514-25.063c-.17.024-.34.04-.5.049a3.76,3.76,0,0,1-3.859-3,.79.79,0,0,1,.616-.909.159.159,0,0,1,.065-.008.474.474,0,0,1,.478.381,2.856,2.856,0,0,0,3.26,2.181,3.908,3.908,0,0,0,3.1-3.1.789.789,0,0,1,.608-.64.464.464,0,0,1,.43.129.578.578,0,0,1,.13.519A5.545,5.545,0,0,1,269.473,307.962Z"/>
        <path id="Path_3" data-name="Path 3" d="M287.692,302.829h-.032l-.032-.219h.025Z"/>
      </g>
    </g>
    <g id="Group_3" data-name="Group 3">
      <path id="Path_4" data-name="Path 4" d="M343.816,336.711a16.781,16.781,0,0,1-7.725,1.969c-5.562,0-9.892-3.495-9.892-10.974V316.24h-5.021v-5.217H326.2v-6.152l5.56-1.229v7.381h11.123v5.217H331.759v11.17c0,3.937,1.822,6.1,5.317,6.1a18.5,18.5,0,0,0,5.755-1.327Z"/>
      <path id="Path_5" data-name="Path 5" d="M374.224,311.023V338.09h-5.562v-4.529a10.818,10.818,0,0,1-9.449,5.119c-7.232,0-12.5-5.856-12.5-14.124s5.364-14.123,12.449-14.123a10.922,10.922,0,0,1,9.5,5.216v-4.626Zm-5.513,13.533c0-5.166-3.591-8.808-8.315-8.808s-8.072,3.642-8.072,8.808c0,5.217,3.4,8.809,8.072,8.809C365.12,333.365,368.711,329.773,368.711,324.556Z"/>
      <path id="Path_6" data-name="Path 6" d="M387.109,304.031a3.619,3.619,0,0,1-7.233,0,3.624,3.624,0,0,1,7.233,0Zm-6.4,6.992h5.562v39.369h-5.562Z"/>
      <path id="Path_7" data-name="Path 7" d="M408.908,310.58v5.66a14.6,14.6,0,0,0-1.673-.1c-5.069,0-8.956,2.854-8.956,9.548v12.4h-5.562V311.023h5.562v5.364a9.264,9.264,0,0,1,9.005-5.954A7.039,7.039,0,0,1,408.908,310.58Z"/>
    </g>
  </g>
</svg>