<svg width="161" height="55" viewBox="0 0 161 55" fill="white" xmlns="http://www.w3.org/2000/svg">
<g clip-path="url(#clip0_52_62)">
<path d="M160.865 46.015C160.872 47.0964 160.646 48.1666 160.203 49.153C159.76 50.1393 159.109 51.0186 158.295 51.731C155.951 53.718 152.019 53.937 149.132 53.839C144.113 53.685 119.902 49.7689 115.232 49.0959C114.785 49.0689 114.358 48.8981 114.016 48.6089C113.254 47.8389 113.516 46.7359 113.724 45.8279C113.976 44.7419 114.219 43.6879 114.462 42.6419C114.495 42.4879 114.535 42.334 114.562 42.179L115.568 42.309L115.738 42.334C115.697 42.488 115.665 42.642 115.625 42.796C115.471 43.42 115.317 44.0443 115.162 44.6689C114.909 45.3825 114.773 46.1328 114.762 46.89C114.772 47.139 114.873 47.3758 115.046 47.555C115.212 47.6951 115.409 47.7926 115.621 47.839C115.858 47.901 116.1 47.9471 116.343 47.977C118.03 48.188 142.736 51.958 145.104 52.193C147.844 52.469 151.339 52.6879 153.398 50.4579C154.435 49.2404 154.994 47.6872 154.971 46.088V45.95C154.971 45.75 154.963 45.536 154.955 45.325C154.948 45.2685 154.946 45.2117 154.947 45.1549C154.923 44.8879 154.89 44.6199 154.842 44.3549L149.401 12.1809C149.376 12.0599 149.352 11.946 149.328 11.825C149.287 11.646 149.239 11.4679 149.19 11.2899C149.174 11.2249 149.149 11.1519 149.133 11.0899C149.06 10.8629 148.979 10.636 148.89 10.417C148.882 10.401 148.882 10.3919 148.874 10.3839C148.768 10.1329 148.647 9.89796 148.525 9.67096C148.493 9.60596 148.46 9.54895 148.42 9.48395C148.371 9.39495 148.314 9.30595 148.257 9.21695C148.2 9.12795 148.152 9.06296 148.103 8.98196C148.063 8.93296 148.022 8.87594 147.982 8.82794C147.917 8.73241 147.846 8.64029 147.771 8.55194C147.739 8.51094 147.706 8.47896 147.671 8.43796C147.571 8.31696 147.46 8.20294 147.346 8.08994L147.314 8.05695C147.208 7.95195 147.103 7.85696 146.99 7.75696C146.965 7.74096 146.941 7.71696 146.917 7.70096C146.8 7.60256 146.679 7.51043 146.552 7.42496C146.532 7.40696 146.51 7.39057 146.487 7.37595C146.354 7.28661 146.224 7.20563 146.098 7.13297C146.09 7.12497 146.073 7.12494 146.065 7.11694C145.079 6.66413 143.992 6.47661 142.911 6.57294C142.711 6.57294 142.538 6.57294 142.343 6.56494H142.311L142.279 6.34595H142.303L149.528 6.51694H149.576L149.966 6.54095C149.981 6.54753 149.998 6.55028 150.014 6.54895C150.046 6.55695 150.071 6.55694 150.103 6.56494L150.303 6.58994C150.366 6.59942 150.429 6.61279 150.49 6.62994C150.514 6.63794 150.546 6.63794 150.571 6.64694C150.596 6.65594 150.603 6.65494 150.619 6.65494C150.721 6.67659 150.821 6.70365 150.919 6.73596C150.947 6.74293 150.975 6.75368 151 6.76794L151.081 6.79196C151.122 6.80896 151.162 6.81695 151.203 6.83295C151.292 6.86495 151.382 6.90596 151.471 6.93796C151.487 6.94596 151.495 6.95496 151.503 6.95496C151.511 6.95496 151.527 6.97094 151.544 6.97894C151.608 7.00294 151.673 7.03596 151.738 7.06796C151.803 7.09996 151.884 7.14095 151.957 7.18195C151.965 7.18995 151.973 7.18994 151.981 7.19794C152.081 7.25494 152.168 7.29795 152.249 7.35995C152.289 7.38395 152.33 7.41695 152.371 7.44095L152.443 7.48996C152.461 7.50492 152.48 7.51829 152.5 7.52994C152.581 7.58694 152.662 7.65195 152.744 7.71695C152.765 7.73121 152.784 7.74728 152.801 7.76495C152.825 7.78995 152.849 7.80596 152.873 7.82996L152.995 7.92996C153.068 7.99396 153.133 8.05896 153.206 8.12396C153.213 8.13834 153.224 8.15 153.238 8.15695C153.338 8.25695 153.417 8.34294 153.498 8.43994C153.519 8.45979 153.538 8.48156 153.554 8.50494C153.585 8.54467 153.619 8.58273 153.654 8.61896C153.694 8.66275 153.732 8.70883 153.767 8.75696C153.799 8.79696 153.832 8.84596 153.867 8.89496C153.902 8.94396 153.949 8.99495 153.989 9.04895C154.005 9.08095 154.03 9.10494 154.046 9.13794L154.146 9.28394L154.317 9.55096C154.331 9.58352 154.35 9.61358 154.373 9.63995C154.389 9.67295 154.398 9.70496 154.414 9.73996C154.544 9.97036 154.661 10.2084 154.762 10.4529C154.771 10.4609 154.771 10.4699 154.779 10.4779C154.869 10.7046 154.949 10.9316 155.022 11.1589C155.046 11.2319 155.062 11.2969 155.079 11.3589C155.135 11.5379 155.179 11.716 155.216 11.903C155.224 11.943 155.241 11.984 155.249 12.032C155.266 12.1042 155.28 12.1773 155.289 12.2509L160.73 44.425C160.826 44.9494 160.872 45.4818 160.865 46.015Z" fill="#09244B"/>
<path d="M147.64 36.7549L142.34 6.55496H142.308L142.276 6.33594H142.3L142.251 6.06894L142.219 5.84995L142.195 5.72794C141.603 2.35494 139.146 -0.0370573 136.316 -0.00405727L115.559 3.61194C114.092 3.86068 112.738 4.55662 111.682 5.60452C110.626 6.65243 109.919 8.00109 109.659 9.46594L104.389 34.5859C103.626 38.2589 106.553 41.332 110.283 41.632L114.402 42.1509L114.564 42.175L115.57 42.305L115.74 42.33L141.792 45.6299C146.586 45.6299 148.435 41.2869 147.64 36.7549ZM124.126 11.692C123.956 11.716 123.786 11.7319 123.626 11.7409C122.731 11.7828 121.85 11.5036 121.143 10.9536C120.435 10.4035 119.947 9.61883 119.767 8.74094C119.732 8.53912 119.776 8.33152 119.891 8.16193C120.006 7.99233 120.183 7.87401 120.383 7.83194C120.404 7.82479 120.426 7.82207 120.448 7.82395C120.56 7.82084 120.669 7.85737 120.757 7.92709C120.844 7.99682 120.904 8.09526 120.926 8.20496C121.088 8.916 121.516 9.53805 122.122 9.94357C122.729 10.3491 123.467 10.5074 124.186 10.386C124.954 10.2384 125.659 9.86419 126.212 9.31159C126.764 8.75898 127.139 8.0534 127.286 7.28595C127.312 7.13082 127.384 6.987 127.492 6.87296C127.601 6.75892 127.74 6.67986 127.894 6.64594C127.971 6.6293 128.05 6.63244 128.126 6.655C128.201 6.67756 128.269 6.71884 128.324 6.77496C128.386 6.84459 128.43 6.92813 128.453 7.0185C128.475 7.10886 128.476 7.20337 128.454 7.29395C128.249 8.3733 127.729 9.36756 126.958 10.1506C126.188 10.9336 125.202 11.4701 124.126 11.692Z" fill="#09244B"/>
<path d="M142.345 6.55899H142.313L142.281 6.33997H142.306L142.345 6.55899Z" fill="white"/>
<path d="M11.492 41.703C11.0729 43.5618 10.0788 45.2413 8.651 46.5031C6.81367 47.9651 4.25567 48.6957 0.977005 48.695H0L0.0590057 44.786C0.30451 44.8243 0.552532 44.844 0.800995 44.845C1.54824 44.8558 2.28959 44.7113 2.97812 44.4207C3.66665 44.1302 4.28736 43.6999 4.80099 43.157C5.67361 42.0375 6.09627 40.6322 5.98599 39.217V23.9301H11.673V36.636H20.649V41.701L11.492 41.703Z" fill="#09244B"/>
<path d="M30.746 41.7031H14.2791V36.6381H30.746V41.7031Z" fill="white"/>
<path d="M28.6719 41.703V36.609H50.0529C50.0229 35.4235 49.7927 34.2517 49.3719 33.143C48.9578 32.0212 48.2651 31.0232 47.3589 30.243C45.8106 28.8686 43.8283 28.0824 41.7589 28.022C40.4642 28.0314 39.1919 28.3606 38.0553 28.9805C36.9186 29.6004 35.9528 30.4917 35.2439 31.575L31.0069 27.992C31.6646 27.1838 32.3773 26.422 33.1399 25.712C35.0577 23.9834 37.4726 22.9051 40.0399 22.631C40.5319 22.592 41.0269 22.572 41.5209 22.572C43.9774 22.5745 46.3965 23.174 48.5699 24.319C52.8366 26.491 55.3835 30.5884 56.2109 36.611L56.2409 41.705L28.6719 41.703Z" fill="#09244B"/>
<path d="M59.6531 9.19104L65.7531 7.81104V32.1371C65.6357 34.8211 66.9191 36.3117 69.6031 36.609H73.3651V41.703H66.6431C65.3715 41.7958 64.102 41.4964 63.0059 40.8452C61.9098 40.1939 61.0397 39.2222 60.5131 38.061C59.9872 36.9258 59.6947 35.6965 59.6531 34.446V9.19104Z" fill="#09244B"/>
<path d="M81.6531 23.9031H87.4601V35.5141C87.5463 36.6291 87.2923 37.744 86.7317 38.7116C86.1711 39.6793 85.3302 40.4542 84.3201 40.9341C83.3355 41.3971 82.2682 41.6585 81.1811 41.7031H72.3811V36.6381H78.6611C80.5564 36.6974 81.5434 35.8974 81.6221 34.2381V31.5151L81.6531 23.9031Z" fill="#09244B"/>
<path d="M88.3829 17.0491C88.4275 17.7727 88.254 18.4931 87.8848 19.117C87.5156 19.741 86.9677 20.2398 86.3119 20.549C85.6562 20.8582 84.9227 20.9635 84.2064 20.8514C83.4901 20.7392 82.824 20.4148 82.2941 19.92C81.7642 19.4251 81.3949 18.7827 81.2341 18.0758C81.0732 17.3689 81.1282 16.6299 81.3918 15.9545C81.6554 15.2792 82.1156 14.6984 82.7129 14.2874C83.3101 13.8764 84.017 13.654 84.7419 13.6491C85.2081 13.6167 85.676 13.6806 86.1164 13.8368C86.5568 13.993 86.9603 14.2383 87.3019 14.5572C87.6434 14.8761 87.9156 15.262 88.1016 15.6907C88.2876 16.1194 88.3834 16.5818 88.3829 17.0491Z" fill="#09244B"/>
<path d="M79.619 17.049C79.5842 17.9849 79.1879 18.8709 78.5135 19.5207C77.8391 20.1705 76.939 20.5335 76.0025 20.5335C75.066 20.5335 74.1659 20.1705 73.4915 19.5207C72.817 18.8709 72.4208 17.9849 72.386 17.049C72.4452 16.1301 72.852 15.2683 73.5237 14.6384C74.1954 14.0086 75.0817 13.6581 76.0025 13.6581C76.9233 13.6581 77.8096 14.0086 78.4813 14.6384C79.153 15.2683 79.5598 16.1301 79.619 17.049Z" fill="#09244B"/>
<path d="M47.5331 51.03C47.4982 51.9659 47.102 52.8518 46.4276 53.5016C45.7531 54.1515 44.8531 54.5145 43.9165 54.5145C42.98 54.5145 42.08 54.1515 41.4055 53.5016C40.7311 52.8518 40.3349 51.9659 40.3 51.03C40.3593 50.1111 40.766 49.2492 41.4377 48.6194C42.1095 47.9896 42.9957 47.639 43.9165 47.639C44.8374 47.639 45.7236 47.9896 46.3953 48.6194C47.0671 49.2492 47.4738 50.1111 47.5331 51.03Z" fill="#09244B"/>
</g>
<defs>
<clipPath id="clip0_52_62">
<rect width="160.866" height="54.53" fill="white"/>
</clipPath>
</defs>
</svg>
